<svg xmlns="http://www.w3.org/2000/svg" id="Layer_1" width="800" height="800" version="1.1" viewBox="0 0 512 512" xml:space="preserve"><circle style="fill:#f4b2b0" cx="255.999" cy="191.991" r="106.247"/><g><path style="fill:#b3404a" d="M256.001,312.597c-66.502,0-120.605-54.103-120.605-120.605S189.499,71.388,256.001,71.388 s120.605,54.103,120.605,120.605S322.503,312.597,256.001,312.597z M256.001,100.103c-50.668,0-91.889,41.221-91.889,91.889 s41.221,91.889,91.889,91.889s91.889-41.221,91.889-91.889S306.669,100.103,256.001,100.103z"/><path style="fill:#b3404a" d="M256.001,512c-3.485,0-6.969-1.262-9.716-3.788c-1.846-1.697-45.719-42.229-90.24-101.212 c-60.644-80.344-91.394-152.899-91.394-215.651c0-29.982,6.742-58.694,20.04-85.341c3.541-7.096,12.164-9.976,19.258-6.435 c7.096,3.541,9.977,12.164,6.435,19.258c-11.294,22.629-17.02,47.027-17.02,72.519c0,116.776,126.28,250.321,162.663,286.364 c11.025-10.859,30.265-30.583,51.606-55.945c5.107-6.068,14.164-6.846,20.23-1.74c6.068,5.106,6.847,14.164,1.74,20.23 c-34.332,40.797-62.723,66.884-63.915,67.975C262.951,510.745,259.475,512,256.001,512z"/><path style="fill:#b3404a" d="M366.198,382.618c-2.76,0-5.549-0.794-8.01-2.452c-6.576-4.431-8.316-13.354-3.884-19.93 c42.687-63.348,64.331-120.17,64.331-168.885c0-89.678-72.957-162.635-162.634-162.635c-34.889,0-68.142,10.88-96.166,31.465 c-6.389,4.694-15.376,3.319-20.071-3.073c-4.695-6.391-3.32-15.377,3.073-20.071C175.823,12.807,214.955,0,256.001,0 c105.51,0,191.348,85.839,191.348,191.349c0,54.536-23.294,116.757-69.233,184.933 C375.345,380.397,370.812,382.618,366.198,382.618z"/><path style="fill:#b3404a" d="M248.206,235.08c-3.674,0-7.35-1.401-10.152-4.205l-38.94-38.94c-5.607-5.607-5.607-14.698,0-20.306 c5.607-5.608,14.698-5.607,20.306,0l28.787,28.787l44.378-44.38c5.607-5.607,14.698-5.607,20.306,0 c5.608,5.607,5.607,14.698,0,20.306l-54.531,54.531C255.554,233.679,251.88,235.08,248.206,235.08z"/></g></svg>